<svg width="75" height="75" viewBox="0 0 75 75" fill="none" xmlns="http://www.w3.org/2000/svg">
<path d="M34.4405 4.88922L4.21031 12.2055C3.55456 12.3636 2.93641 12.6494 2.39118 13.0466C1.84596 13.4438 1.38435 13.9445 1.03275 14.5201C0.681159 15.0958 0.446467 15.7351 0.342095 16.4015C0.237723 17.068 0.265718 17.7484 0.42448 18.404L13.1038 70.7897C13.2619 71.4454 13.5477 72.0636 13.9449 72.6088C14.3421 73.154 14.8428 73.6156 15.4184 73.9672C15.9941 74.3188 16.6334 74.5535 17.2998 74.6579C17.9663 74.7623 18.6467 74.7343 19.3023 74.5755L58.6044 65.0545L34.4405 4.88922Z" fill="#F3D55B"/>
<path d="M7.57014 21.9178C7.25698 21.9165 6.9551 21.8008 6.72134 21.5924C6.48759 21.384 6.3381 21.0973 6.30102 20.7864C6.26395 20.4754 6.34185 20.1616 6.52006 19.9041C6.69826 19.6466 6.96447 19.4632 7.26855 19.3883L9.76335 18.7839C9.92908 18.7383 10.1023 18.7265 10.2727 18.7491C10.443 18.7717 10.6071 18.8284 10.7552 18.9156C10.9033 19.0029 11.0323 19.119 11.1347 19.2571C11.237 19.3952 11.3106 19.5525 11.351 19.7195C11.3914 19.8866 11.3978 20.0601 11.3699 20.2297C11.342 20.3993 11.2803 20.5615 11.1885 20.7068C11.0967 20.8521 10.9766 20.9775 10.8354 21.0755C10.6942 21.1735 10.5348 21.2422 10.3665 21.2774L7.873 21.8818C7.77393 21.9063 7.67219 21.9184 7.57014 21.9178Z" fill="#3F5C6C"/>
<path d="M16.2982 19.8028C15.9842 19.8025 15.6813 19.6871 15.4467 19.4785C15.2121 19.2699 15.0621 18.9825 15.0251 18.6707C14.9881 18.359 15.0666 18.0444 15.2459 17.7867C15.4252 17.529 15.6927 17.3459 15.9979 17.2721L25.6486 14.9364C25.8143 14.8909 25.9875 14.879 26.1579 14.9017C26.3283 14.9243 26.4924 14.981 26.6404 15.0682C26.7885 15.1555 26.9176 15.2716 27.0199 15.4097C27.1222 15.5478 27.1958 15.705 27.2362 15.8721C27.2766 16.0392 27.2831 16.2126 27.2551 16.3822C27.2272 16.5518 27.1655 16.7141 27.0737 16.8594C26.9819 17.0047 26.8618 17.1301 26.7206 17.2281C26.5794 17.3261 26.42 17.3947 26.2517 17.43L16.6023 19.7669C16.5027 19.7909 16.4006 19.8029 16.2982 19.8028Z" fill="#3F5C6C"/>
<path d="M9.07926 28.1548C8.76519 28.1548 8.46202 28.0396 8.22717 27.8311C7.99232 27.6226 7.84208 27.3352 7.80492 27.0233C7.76775 26.7115 7.84624 26.3968 8.02551 26.1389C8.20479 25.881 8.4724 25.6979 8.77768 25.6241L11.2725 25.0196C11.6033 24.9395 11.9524 24.994 12.243 25.1713C12.5337 25.3485 12.7419 25.634 12.8221 25.9648C12.9023 26.2956 12.8477 26.6447 12.6705 26.9354C12.4932 27.226 12.2078 27.4343 11.8769 27.5144L9.38213 28.1176C9.28311 28.1425 9.18137 28.155 9.07926 28.1548Z" fill="#3F5C6C"/>
<path d="M17.8123 26.0398C17.4993 26.038 17.1978 25.9218 16.9646 25.7132C16.7313 25.5046 16.5822 25.218 16.5455 24.9072C16.5088 24.5964 16.5868 24.2829 16.7651 24.0257C16.9433 23.7684 17.2094 23.5852 17.5132 23.5104L25.6496 21.5456C25.9775 21.4741 26.3203 21.5338 26.6047 21.7121C26.889 21.8903 27.0922 22.1728 27.1708 22.4991C27.2493 22.8254 27.197 23.1694 27.0249 23.4575C26.8528 23.7456 26.5747 23.9549 26.2502 24.0404L18.1215 26.0039C18.0204 26.029 17.9165 26.041 17.8123 26.0398Z" fill="#3F5C6C"/>
<path d="M10.5885 34.3918C10.275 34.3902 9.9729 34.274 9.73923 34.0649C9.50555 33.8559 9.35649 33.5685 9.32017 33.2571C9.28385 32.9457 9.36278 32.6318 9.54208 32.3746C9.72137 32.1174 9.98861 31.9347 10.2934 31.861L12.7869 31.2579C12.9524 31.213 13.1251 31.2017 13.295 31.2248C13.4649 31.2478 13.6285 31.3046 13.776 31.3919C13.9236 31.4791 14.0522 31.5951 14.1542 31.7329C14.2562 31.8707 14.3296 32.0275 14.37 32.1941C14.4103 32.3608 14.4169 32.5338 14.3894 32.703C14.3618 32.8722 14.3006 33.0342 14.2093 33.1793C14.1181 33.3245 13.9987 33.4499 13.8582 33.5481C13.7177 33.6464 13.559 33.7155 13.3913 33.7514L10.8978 34.3558C10.7965 34.38 10.6927 34.3921 10.5885 34.3918Z" fill="#3F5C6C"/>
<path d="M19.3138 32.2768C18.9999 32.2765 18.6969 32.1612 18.4623 31.9525C18.2277 31.7439 18.0777 31.4565 18.0407 31.1447C18.0037 30.833 18.0823 30.5184 18.2615 30.2607C18.4408 30.003 18.7084 29.8199 19.0135 29.7461L25.6484 28.1419C25.8141 28.0964 25.9873 28.0845 26.1577 28.1072C26.328 28.1298 26.4921 28.1865 26.6402 28.2737C26.7883 28.361 26.9173 28.4771 27.0197 28.6152C27.122 28.7533 27.1956 28.9106 27.236 29.0776C27.2764 29.2447 27.2829 29.4182 27.2549 29.5878C27.227 29.7574 27.1653 29.9196 27.0735 30.0649C26.9817 30.2102 26.8616 30.3356 26.7204 30.4336C26.5792 30.5316 26.4198 30.6003 26.2515 30.6355L19.6167 32.2396C19.5177 32.2645 19.4159 32.2771 19.3138 32.2768Z" fill="#3F5C6C"/>
<path d="M12.0975 40.6288C11.7836 40.6284 11.4806 40.5131 11.246 40.3044C11.0114 40.0958 10.8614 39.8084 10.8244 39.4966C10.7874 39.1849 10.866 38.8704 11.0452 38.6126C11.2245 38.3549 11.492 38.1718 11.7972 38.098L14.292 37.5C14.4575 37.4551 14.6303 37.4439 14.8001 37.4669C14.97 37.4899 15.1336 37.5467 15.2812 37.634C15.4287 37.7213 15.5573 37.8372 15.6593 37.975C15.7613 38.1128 15.8347 38.2696 15.8751 38.4363C15.9155 38.6029 15.9221 38.7759 15.8945 38.9451C15.8669 39.1143 15.8057 39.2763 15.7145 39.4214C15.6232 39.5666 15.5039 39.692 15.3634 39.7903C15.2229 39.8885 15.0641 39.9576 14.8965 39.9935L12.4004 40.598C12.3011 40.6207 12.1994 40.6311 12.0975 40.6288Z" fill="#3F5C6C"/>
<path d="M20.8281 38.5139C20.5139 38.5142 20.2105 38.3992 19.9755 38.1908C19.7404 37.9824 19.5899 37.695 19.5526 37.383C19.5152 37.0711 19.5936 36.7563 19.7729 36.4983C19.9522 36.2402 20.2199 36.057 20.5252 35.9831L25.647 34.7396C25.8122 34.6956 25.9845 34.685 26.1538 34.7084C26.3231 34.7319 26.486 34.789 26.6329 34.8763C26.7799 34.9636 26.9079 35.0793 27.0095 35.2168C27.1111 35.3542 27.1843 35.5106 27.2246 35.6767C27.265 35.8428 27.2717 36.0153 27.2445 36.184C27.2173 36.3527 27.1566 36.5143 27.0661 36.6593C26.9756 36.8043 26.857 36.9297 26.7173 37.0283C26.5776 37.1268 26.4197 37.1964 26.2528 37.2331L21.1323 38.4779C21.0326 38.5018 20.9305 38.5139 20.8281 38.5139Z" fill="#3F5C6C"/>
<path d="M64.4502 64.45H69.5835C70.945 64.45 72.2507 63.9092 73.2133 62.9465C74.176 61.9838 74.7169 60.6781 74.7169 59.3167V5.41666C74.7169 4.05521 74.176 2.74953 73.2133 1.78684C72.2507 0.824157 70.945 0.283325 69.5835 0.283325H31.0835C29.7221 0.283325 28.4164 0.824157 27.4537 1.78684C26.491 2.74953 25.9502 4.05521 25.9502 5.41666V59.3167C25.9502 60.6781 26.491 61.9838 27.4537 62.9465C28.4164 63.9092 29.7221 64.45 31.0835 64.45H64.4502Z" fill="#F9EAB0"/>
<path d="M64.45 55.4923V73.4333C64.45 73.6871 64.3747 73.9352 64.2337 74.1461C64.0926 74.3571 63.8922 74.5216 63.6578 74.6187C63.4233 74.7158 63.1653 74.7412 62.9164 74.6917C62.6675 74.6422 62.4389 74.5201 62.2594 74.3406L58.9407 71.0219C58.7 70.7813 58.3737 70.6462 58.0334 70.6462C57.6931 70.6462 57.3667 70.7813 57.126 71.0219L53.8074 74.3406C53.6279 74.5201 53.3992 74.6422 53.1503 74.6917C52.9014 74.7412 52.6434 74.7158 52.409 74.6187C52.1745 74.5216 51.9741 74.3571 51.8331 74.1461C51.692 73.9352 51.6168 73.6871 51.6167 73.4333V55.4923H64.45Z" fill="#C03A2B"/>
<path d="M59.1882 35.4094L59.4026 35.2721C59.653 35.1115 59.9341 35.005 60.2281 34.9593C60.522 34.9136 60.8223 34.9297 61.1096 35.0067C61.397 35.0836 61.6651 35.2196 61.8969 35.4061C62.1286 35.5926 62.3189 35.8254 62.4556 36.0896L62.5724 36.3167C62.7601 36.6803 63.0481 36.9823 63.4022 37.187C63.7564 37.3917 64.1619 37.4906 64.5705 37.4717L64.8272 37.4589C65.1242 37.4454 65.4208 37.494 65.698 37.6015C65.9751 37.709 66.2269 37.8731 66.4371 38.0833C66.6473 38.2935 66.8114 38.5453 66.9189 38.8225C67.0265 39.0996 67.075 39.3962 67.0615 39.6932L67.0487 39.9499C67.0298 40.3585 67.1287 40.764 67.3334 41.1182C67.5381 41.4723 67.8402 41.7604 68.2037 41.948L68.4308 42.0648C68.695 42.2015 68.9278 42.3918 69.1143 42.6235C69.3008 42.8553 69.4368 43.1234 69.5138 43.4108C69.5907 43.6981 69.6068 43.9984 69.5611 44.2923C69.5154 44.5863 69.4089 44.8674 69.2483 45.1178L69.111 45.3322C68.8899 45.6768 68.7724 46.0777 68.7724 46.4872C68.7724 46.8966 68.8899 47.2975 69.111 47.6422L69.2483 47.8565C69.4089 48.1069 69.5154 48.3881 69.5611 48.682C69.6068 48.9759 69.5907 49.2762 69.5138 49.5635C69.4368 49.8509 69.3008 50.119 69.1143 50.3508C68.9278 50.5826 68.695 50.7729 68.4308 50.9095L68.2037 51.0263C67.8402 51.214 67.5381 51.502 67.3334 51.8562C67.1287 52.2103 67.0298 52.6158 67.0487 53.0245L67.0615 53.2811C67.075 53.5781 67.0265 53.8747 66.9189 54.1519C66.8114 54.4291 66.6473 54.6808 66.4371 54.891C66.2269 55.1013 65.9751 55.2654 65.698 55.3729C65.4208 55.4804 65.1242 55.5289 64.8272 55.5154L64.5705 55.5026C64.1619 55.4838 63.7564 55.5826 63.4022 55.7873C63.0481 55.992 62.7601 56.2941 62.5724 56.6576L62.4556 56.8847C62.3189 57.1489 62.1286 57.3817 61.8969 57.5682C61.6651 57.7547 61.397 57.8907 61.1096 57.9677C60.8223 58.0446 60.522 58.0607 60.2281 58.015C59.9341 57.9693 59.653 57.8628 59.4026 57.7022L59.1882 57.5649C58.8436 57.3438 58.4427 57.2263 58.0332 57.2263C57.6238 57.2263 57.2229 57.3438 56.8782 57.5649L56.6639 57.7022C56.4135 57.8628 56.1323 57.9693 55.8384 58.015C55.5445 58.0607 55.2442 58.0446 54.9569 57.9677C54.6695 57.8907 54.4014 57.7547 54.1696 57.5682C53.9379 57.3817 53.7476 57.1489 53.6109 56.8847L53.4941 56.6576C53.3064 56.2941 53.0184 55.992 52.6642 55.7873C52.3101 55.5826 51.9046 55.4838 51.4959 55.5026L51.2393 55.5154C50.9423 55.5289 50.6457 55.4804 50.3685 55.3729C50.0913 55.2654 49.8396 55.1013 49.6294 54.891C49.4192 54.6808 49.255 54.4291 49.1475 54.1519C49.04 53.8747 48.9915 53.5781 49.005 53.2811L49.0178 53.0245C49.0366 52.6158 48.9378 52.2103 48.7331 51.8562C48.5284 51.502 48.2263 51.214 47.8628 51.0263L47.6357 50.9095C47.3715 50.7729 47.1387 50.5826 46.9522 50.3508C46.7657 50.119 46.6297 49.8509 46.5527 49.5635C46.4758 49.2762 46.4597 48.9759 46.5054 48.682C46.5511 48.3881 46.6576 48.1069 46.8182 47.8565L46.9555 47.6422C47.1766 47.2975 47.2941 46.8966 47.2941 46.4872C47.2941 46.0777 47.1766 45.6768 46.9555 45.3322L46.8182 45.1178C46.6576 44.8674 46.5511 44.5863 46.5054 44.2923C46.4597 43.9984 46.4758 43.6981 46.5527 43.4108C46.6297 43.1234 46.7657 42.8553 46.9522 42.6235C47.1387 42.3918 47.3715 42.2015 47.6357 42.0648L47.8628 41.948C48.2263 41.7604 48.5284 41.4723 48.7331 41.1182C48.9378 40.764 49.0366 40.3585 49.0178 39.9499L49.005 39.6932C48.9915 39.3962 49.04 39.0996 49.1475 38.8225C49.255 38.5453 49.4192 38.2935 49.6294 38.0833C49.8396 37.8731 50.0913 37.709 50.3685 37.6015C50.6457 37.494 50.9423 37.4454 51.2393 37.4589L51.4959 37.4717C51.9046 37.4906 52.3101 37.3917 52.6642 37.187C53.0184 36.9823 53.3064 36.6803 53.4941 36.3167L53.6109 36.0896C53.7476 35.8254 53.9379 35.5926 54.1696 35.4061C54.4014 35.2196 54.6695 35.0836 54.9569 35.0067C55.2442 34.9297 55.5445 34.9136 55.8384 34.9593C56.1323 35.005 56.4135 35.1115 56.6639 35.2721L56.8782 35.4094C57.2229 35.6305 57.6238 35.748 58.0332 35.748C58.4427 35.748 58.8436 35.6305 59.1882 35.4094Z" fill="#E64C3C"/>
<path d="M34.9335 10.55H32.3668C32.0265 10.55 31.7 10.4148 31.4594 10.1741C31.2187 9.93345 31.0835 9.60703 31.0835 9.26667C31.0835 8.92631 31.2187 8.59989 31.4594 8.35922C31.7 8.11855 32.0265 7.98334 32.3668 7.98334H34.9335C35.2739 7.98334 35.6003 8.11855 35.841 8.35922C36.0816 8.59989 36.2168 8.92631 36.2168 9.26667C36.2168 9.60703 36.0816 9.93345 35.841 10.1741C35.6003 10.4148 35.2739 10.55 34.9335 10.55Z" fill="#3F5C6C"/>
<path d="M68.2997 10.5499H41.3497C41.0094 10.5499 40.683 10.4147 40.4423 10.1741C40.2016 9.93339 40.0664 9.60697 40.0664 9.26661C40.0664 8.92625 40.2016 8.59983 40.4423 8.35916C40.683 8.11848 41.0094 7.98328 41.3497 7.98328H68.2997C68.6401 7.98328 68.9665 8.11848 69.2072 8.35916C69.4479 8.59983 69.5831 8.92625 69.5831 9.26661C69.5831 9.60697 69.4479 9.93339 69.2072 10.1741C68.9665 10.4147 68.6401 10.5499 68.2997 10.5499Z" fill="#3F5C6C"/>
<path d="M58.0334 52.9C61.5772 52.9 64.45 50.0271 64.45 46.4833C64.45 42.9395 61.5772 40.0667 58.0334 40.0667C54.4895 40.0667 51.6167 42.9395 51.6167 46.4833C51.6167 50.0271 54.4895 52.9 58.0334 52.9Z" fill="#E57E25"/>
<path d="M34.9335 16.9667H32.3668C32.0265 16.9667 31.7 16.8315 31.4594 16.5908C31.2187 16.3501 31.0835 16.0237 31.0835 15.6834C31.0835 15.343 31.2187 15.0166 31.4594 14.7759C31.7 14.5352 32.0265 14.4 32.3668 14.4H34.9335C35.2739 14.4 35.6003 14.5352 35.841 14.7759C36.0816 15.0166 36.2168 15.343 36.2168 15.6834C36.2168 16.0237 36.0816 16.3501 35.841 16.5908C35.6003 16.8315 35.2739 16.9667 34.9335 16.9667Z" fill="#3F5C6C"/>
<path d="M68.2997 16.9667H41.3497C41.0094 16.9667 40.683 16.8315 40.4423 16.5908C40.2016 16.3501 40.0664 16.0237 40.0664 15.6834C40.0664 15.343 40.2016 15.0166 40.4423 14.7759C40.683 14.5352 41.0094 14.4 41.3497 14.4H68.2997C68.6401 14.4 68.9665 14.5352 69.2072 14.7759C69.4479 15.0166 69.5831 15.343 69.5831 15.6834C69.5831 16.0237 69.4479 16.3501 69.2072 16.5908C68.9665 16.8315 68.6401 16.9667 68.2997 16.9667Z" fill="#3F5C6C"/>
<path d="M34.9335 23.3833H32.3668C32.0265 23.3833 31.7 23.2481 31.4594 23.0074C31.2187 22.7668 31.0835 22.4403 31.0835 22.1C31.0835 21.7596 31.2187 21.4332 31.4594 21.1925C31.7 20.9519 32.0265 20.8167 32.3668 20.8167H34.9335C35.2739 20.8167 35.6003 20.9519 35.841 21.1925C36.0816 21.4332 36.2168 21.7596 36.2168 22.1C36.2168 22.4403 36.0816 22.7668 35.841 23.0074C35.6003 23.2481 35.2739 23.3833 34.9335 23.3833Z" fill="#3F5C6C"/>
<path d="M68.2997 23.3833H41.3497C41.0094 23.3833 40.683 23.2481 40.4423 23.0074C40.2016 22.7668 40.0664 22.4403 40.0664 22.1C40.0664 21.7596 40.2016 21.4332 40.4423 21.1925C40.683 20.9519 41.0094 20.8167 41.3497 20.8167H68.2997C68.6401 20.8167 68.9665 20.9519 69.2072 21.1925C69.4479 21.4332 69.5831 21.7596 69.5831 22.1C69.5831 22.4403 69.4479 22.7668 69.2072 23.0074C68.9665 23.2481 68.6401 23.3833 68.2997 23.3833Z" fill="#3F5C6C"/>
<path d="M34.9335 29.8H32.3668C32.0265 29.8 31.7 29.6648 31.4594 29.4241C31.2187 29.1835 31.0835 28.857 31.0835 28.5167C31.0835 28.1763 31.2187 27.8499 31.4594 27.6092C31.7 27.3685 32.0265 27.2333 32.3668 27.2333H34.9335C35.2739 27.2333 35.6003 27.3685 35.841 27.6092C36.0816 27.8499 36.2168 28.1763 36.2168 28.5167C36.2168 28.857 36.0816 29.1835 35.841 29.4241C35.6003 29.6648 35.2739 29.8 34.9335 29.8Z" fill="#3F5C6C"/>
<path d="M47.7664 29.7999H41.3497C41.0094 29.7999 40.683 29.6647 40.4423 29.4241C40.2016 29.1834 40.0664 28.857 40.0664 28.5166C40.0664 28.1762 40.2016 27.8498 40.4423 27.6092C40.683 27.3685 41.0094 27.2333 41.3497 27.2333H47.7664C48.1068 27.2333 48.4332 27.3685 48.6739 27.6092C48.9145 27.8498 49.0497 28.1762 49.0497 28.5166C49.0497 28.857 48.9145 29.1834 48.6739 29.4241C48.4332 29.6647 48.1068 29.7999 47.7664 29.7999Z" fill="#3F5C6C"/>
</svg>
