<svg width="1720" height="1608" viewBox="0 0 1720 1608" fill="none" xmlns="http://www.w3.org/2000/svg">
<g filter="url(#filter0_f_2009_10)">
<circle cx="829" cy="804" r="304" fill="#020043" fill-opacity="0.3"/>
</g>
<g clip-path="url(#clip0_2009_10)">
<g style="mix-blend-mode:color-burn">
<path d="M1720 495.64H1597.12V610.32H1720V495.64Z" fill="#C1D5DE"/>
<path d="M1720 610.32H1597.12V725H1720V610.32Z" fill="#C7DBE5"/>
<path d="M1720 839.64H1597.12V954.32H1720V839.64Z" fill="#E2F5FF"/>
<path d="M1597.12 381H1474.28V495.64H1597.12V381Z" fill="#F1FAFF"/>
<path d="M1597.12 495.64H1474.28V610.32H1597.12V495.64Z" fill="#DEF4FF"/>
<path d="M1597.12 725H1474.28V839.64H1597.12V725Z" fill="#C7DBE5"/>
<path d="M1597.12 839.64H1474.28V954.32H1597.12V839.64Z" fill="#DEF4FF"/>
<path d="M1597.12 954.32H1474.28V1069H1597.12V954.32Z" fill="#E8F7FF"/>
<path d="M1474.28 381H1351.44V495.64H1474.28V381Z" fill="#F6FCFF"/>
<path d="M1474.28 495.64H1351.44V610.32H1474.28V495.64Z" fill="#E3F6FF"/>
<path d="M1474.28 610.32H1351.44V725H1474.28V610.32Z" fill="#D7ECF7"/>
<path d="M1474.28 725H1351.44V839.64H1474.28V725Z" fill="#E3F6FF"/>
<path d="M1474.28 839.64H1351.44V954.32H1474.28V839.64Z" fill="#EAF8FF"/>
<path d="M1474.28 954.32H1351.44V1069H1474.28V954.32Z" fill="#EDF9FF"/>
<path d="M1351.44 495.64H1228.56V610.32H1351.44V495.64Z" fill="#E1F5FF"/>
<path d="M1351.44 610.32H1228.56V725H1351.44V610.32Z" fill="#B9CCD5"/>
<path d="M1351.44 725H1228.56V839.64H1351.44V725Z" fill="#D9EFFA"/>
<path d="M1351.44 954.32H1228.56V1069H1351.44V954.32Z" fill="#E8F7FF"/>
<path d="M1228.56 381H1105.72V495.64H1228.56V381Z" fill="#F5FCFF"/>
<path d="M1228.56 495.64H1105.72V610.32H1228.56V495.64Z" fill="#EAF8FF"/>
<path d="M1228.56 725H1105.72V839.64H1228.56V725Z" fill="#C4D7E1"/>
<path d="M1228.56 839.64H1105.72V954.32H1228.56V839.64Z" fill="#DEF4FF"/>
<path d="M1105.72 381H982.88V495.64H1105.72V381Z" fill="#F6FCFF"/>
<path d="M1105.72 495.64H982.88V610.32H1105.72V495.64Z" fill="#E9F8FF"/>
<path d="M1105.72 610.32H982.88V725H1105.72V610.32Z" fill="#CFE4EE"/>
<path d="M1105.72 725H982.88V839.64H1105.72V725Z" fill="#C7DBE5"/>
<path d="M1105.72 839.64H982.88V954.32H1105.72V839.64Z" fill="#D7ECF7"/>
<path d="M1105.72 954.32H982.88V1069H1105.72V954.32Z" fill="#E5F6FF"/>
<path d="M982.88 495.64H860V610.32H982.88V495.64Z" fill="#E5F6FF"/>
<path d="M982.88 610.32H860V725H982.88V610.32Z" fill="#C7DBE5"/>
<path d="M982.88 839.64H860V954.32H982.88V839.64Z" fill="#C9DDE7"/>
<path d="M982.88 954.32H860V1069H982.88V954.32Z" fill="#E1F5FF"/>
<path d="M860 381H737.16V495.64H860V381Z" fill="#F1FAFF"/>
<path d="M860 495.64H737.16V610.32H860V495.64Z" fill="#E1F5FF"/>
<path d="M860 610.32H737.16V725H860V610.32Z" fill="#C1D5DE"/>
<path d="M860 725H737.16V839.64H860V725Z" fill="#DDF3FD"/>
<path d="M860 839.64H737.16V954.32H860V839.64Z" fill="#C1D5DE"/>
<path d="M737.16 495.64H614.28V610.32H737.16V495.64Z" fill="#D9EFFA"/>
<path d="M737.16 725H614.28V839.64H737.16V725Z" fill="#CFE4EE"/>
<path d="M737.16 839.64H614.28V954.32H737.16V839.64Z" fill="#BCCED8"/>
<path d="M737.16 954.32H614.28V1069H737.16V954.32Z" fill="#BFD2DB"/>
<path d="M614.28 381H491.44V495.64H614.28V381Z" fill="#ECF9FF"/>
<path d="M614.28 495.64H491.44V610.32H614.28V495.64Z" fill="#E1F5FF"/>
<path d="M614.28 610.32H491.44V725H614.28V610.32Z" fill="#DEF4FF"/>
<path d="M614.28 725H491.44V839.64H614.28V725Z" fill="#D9EFFA"/>
<path d="M614.28 954.32H491.44V1069H614.28V954.32Z" fill="#A9BAC3"/>
<path d="M491.4 381H368.56V495.64H491.4V381Z" fill="#F0FAFF"/>
<path d="M491.4 495.64H368.56V610.32H491.4V495.64Z" fill="#E8F7FF"/>
<path d="M491.4 610.32H368.56V725H491.4V610.32Z" fill="#E3F6FF"/>
<path d="M491.4 725H368.56V839.64H491.4V725Z" fill="#E5F6FF"/>
<path d="M491.4 839.64H368.56V954.32H491.4V839.64Z" fill="#DDF3FD"/>
<path d="M368.6 495.64H245.72V610.32H368.6V495.64Z" fill="#E1F5FF"/>
<path d="M368.6 610.32H245.72V725H368.6V610.32Z" fill="#CCE0EA"/>
<path d="M368.6 725H245.72V839.64H368.6V725Z" fill="#B7C9D2"/>
<path d="M368.6 839.64H245.72V954.32H368.6V839.64Z" fill="#CFE4EE"/>
<path d="M368.6 954.32H245.72V1069H368.6V954.32Z" fill="#C4D7E1"/>
<path d="M245.72 381H122.88V495.64H245.72V381Z" fill="#E8F7FF"/>
<path d="M245.72 495.64H122.88V610.32H245.72V495.64Z" fill="#DDF3FD"/>
<path d="M245.72 610.32H122.88V725H245.72V610.32Z" fill="#E2F5FF"/>
<path d="M245.72 839.64H122.88V954.32H245.72V839.64Z" fill="#D9EFFA"/>
<path d="M245.72 954.32H122.88V1069H245.72V954.32Z" fill="#E8F7FF"/>
<path d="M122.88 381H0V495.64H122.88V381Z" fill="#D9EFFA"/>
<path d="M122.88 610.32H0V725H122.88V610.32Z" fill="#D9EFFA"/>
<path d="M122.88 725H0V839.64H122.88V725Z" fill="#E5F6FF"/>
<path d="M122.88 839.64H0V954.32H122.88V839.64Z" fill="#E8F7FF"/>
</g>
</g>
<defs>
<filter id="filter0_f_2009_10" x="25" y="0" width="1608" height="1608" filterUnits="userSpaceOnUse" color-interpolation-filters="sRGB">
<feFlood flood-opacity="0" result="BackgroundImageFix"/>
<feBlend mode="normal" in="SourceGraphic" in2="BackgroundImageFix" result="shape"/>
<feGaussianBlur stdDeviation="250" result="effect1_foregroundBlur_2009_10"/>
</filter>
<clipPath id="clip0_2009_10">
<rect width="1720" height="688" fill="white" transform="translate(0 381)"/>
</clipPath>
</defs>
</svg>
